<svg width="51" height="52" viewBox="0 0 51 52" fill="none" xmlns="http://www.w3.org/2000/svg">
<path d="M0 10.4743C0 4.68 4.53274 0 10.1447 0H40.2191C45.8311 0 50.3638 4.68 50.3638 10.4743V41.5257C50.3638 47.32 45.8311 52 40.2191 52H10.1447C4.53274 52 0 47.32 0 41.5257V10.4743Z" fill="#C72831"/>
<path d="M20.1819 26.1849C20.7934 26.4077 21.441 26.5935 22.0525 26.7049C22.6641 26.7792 23.3836 26.8535 24.139 26.8535C25.2902 26.8535 26.2975 26.6677 27.0889 26.2963C27.9163 25.8877 28.5638 25.3306 29.1035 24.662C29.6071 23.9563 29.9668 23.1392 30.2187 22.2106C30.4705 21.282 30.6144 20.2792 30.6144 19.1649C30.6144 18.3106 30.5065 17.5306 30.3266 16.7877C30.1467 16.0449 29.8589 15.3763 29.4632 14.8192C29.1035 14.262 28.5998 13.8163 27.9883 13.5192C27.3767 13.1849 26.6212 13.0363 25.7938 13.0363C25.0024 13.0363 24.2469 13.1849 23.5994 13.5192C22.9519 13.8535 22.3763 14.262 21.8727 14.8192C21.405 15.3392 21.0093 16.0077 20.7215 16.7506C20.4337 17.4935 20.2898 18.2735 20.2898 19.1277V26.1849H20.1819ZM14.6418 8.98774C14.6418 8.91345 14.9296 8.83917 15.5412 8.80203C16.1528 8.72774 16.7643 8.72774 17.4478 8.72774C18.0954 8.72774 18.7069 8.76488 19.2825 8.80203C19.8941 8.83917 20.1819 8.87631 20.1819 8.98774V12.3677H20.2178C20.9373 11.142 21.8727 10.1763 23.0238 9.50774C24.211 8.83917 25.6859 8.50488 27.4486 8.50488C28.9596 8.50488 30.2546 8.76488 31.3698 9.32202C32.521 9.84202 33.4204 10.5849 34.1398 11.5135C34.8593 12.442 35.3989 13.5935 35.7587 14.8935C36.1184 16.1935 36.2983 17.5677 36.2983 19.0535C36.2983 20.6506 36.0465 22.1363 35.5428 23.5849C35.0752 25.0335 34.3197 26.2963 33.3484 27.4106C32.3411 28.4877 31.118 29.342 29.6071 30.0106C28.1322 30.642 26.4054 30.9763 24.4268 30.9763C23.7793 30.9763 23.0958 30.902 22.3403 30.7906C21.6208 30.7163 20.9373 30.5677 20.2898 30.382V41.0049C20.2898 41.0792 20.002 41.1535 19.4264 41.1906C18.8508 41.2649 18.2393 41.2649 17.5198 41.2649C16.8003 41.2649 16.1528 41.2277 15.5772 41.1906C14.9656 41.1535 14.6778 41.1163 14.6778 41.0049V8.98774H14.6418Z" fill="white"/>
<path d="M0 39.7427V41.4884C0 47.2827 4.53274 51.9627 10.1447 51.9627H40.2191C45.8311 51.9627 50.3638 47.2827 50.3638 41.4884V21.0598C42.3416 42.0455 8.59782 39.7798 0 39.7427Z" fill="url(#paint0_linear_32_39)"/>
<defs>
<linearGradient id="paint0_linear_32_39" x1="31.8269" y1="58.6073" x2="24.5522" y2="31.2309" gradientUnits="userSpaceOnUse">
<stop offset="0.0429781" stop-color="#C72831"/>
<stop offset="0.6318" stop-color="#A0131B"/>
</linearGradient>
</defs>
</svg>
