<svg width="20" height="20" viewBox="0 0 20 20" fill="none" xmlns="http://www.w3.org/2000/svg">
<path fill-rule="evenodd" clip-rule="evenodd" d="M0.34458 0.34458C0.804021 -0.11486 1.54892 -0.11486 2.00836 0.34458L10 8.33622L17.9916 0.34458C18.4511 -0.11486 19.196 -0.11486 19.6554 0.34458C20.1149 0.804021 20.1149 1.54892 19.6554 2.00836L11.6638 10L19.6554 17.9916C20.1149 18.4511 20.1149 19.196 19.6554 19.6554C19.196 20.1149 18.4511 20.1149 17.9916 19.6554L10 11.6638L2.00836 19.6554C1.54892 20.1149 0.804021 20.1149 0.34458 19.6554C-0.11486 19.196 -0.11486 18.4511 0.34458 17.9916L8.33622 10L0.34458 2.00836C-0.11486 1.54892 -0.11486 0.804021 0.34458 0.34458Z" fill="#687684"/>
</svg>
