<svg width="121" height="46" viewBox="0 0 121 46" fill="none" xmlns="http://www.w3.org/2000/svg">
<path d="M0.200195 6.29931C0.200195 6.26216 0.344093 6.22502 0.66786 6.18788C0.991628 6.15074 1.31539 6.15073 1.67513 6.15073C2.03487 6.15073 2.35865 6.15074 2.64644 6.18788C2.97021 6.22502 3.1141 6.26216 3.1141 6.29931V8.08216H3.15007C3.50982 7.41359 4.01345 6.93074 4.66099 6.55931C5.27255 6.18788 6.06398 6.03931 6.99931 6.03931C7.79074 6.03931 8.51022 6.18788 9.08581 6.48502C9.69737 6.78216 10.165 7.15359 10.5608 7.67359C10.9565 8.15645 11.2443 8.75074 11.4241 9.45645C11.604 10.1622 11.7119 10.905 11.7119 11.685C11.7119 12.5393 11.568 13.3193 11.3162 14.0993C11.0644 14.8793 10.6687 15.5479 10.1291 16.105C9.58945 16.6993 8.94191 17.145 8.15048 17.4793C7.35905 17.8136 6.42372 17.9993 5.38047 17.9993C5.02073 17.9993 4.66099 17.9622 4.30125 17.925C3.90553 17.8879 3.54579 17.8136 3.22202 17.7022V23.3479C3.22202 23.385 3.07812 23.4222 2.75436 23.4593C2.46656 23.4964 2.10683 23.4964 1.74709 23.4964C1.38734 23.4964 1.0276 23.4964 0.703831 23.4593C0.380064 23.4222 0.236166 23.385 0.236166 23.3479V6.29931H0.200195ZM3.15007 15.4365C3.47384 15.5479 3.79761 15.6593 4.15735 15.6964C4.48112 15.7336 4.84086 15.7707 5.27255 15.7707C5.88411 15.7707 6.42372 15.6593 6.85541 15.4736C7.2871 15.2507 7.64684 14.9907 7.89866 14.6193C8.18646 14.2479 8.36633 13.8393 8.51022 13.3193C8.65412 12.8364 8.69009 12.2793 8.69009 11.7222C8.69009 11.2764 8.65412 10.8307 8.5462 10.4593C8.43828 10.0507 8.29438 9.71645 8.07853 9.41931C7.86269 9.12216 7.61087 8.89931 7.2871 8.71359C6.96334 8.52788 6.56762 8.45359 6.09995 8.45359C5.66826 8.45359 5.27255 8.52788 4.94878 8.71359C4.58904 8.89931 4.30125 9.12216 4.01345 9.38216C3.76163 9.67931 3.54579 10.0136 3.40189 10.4222C3.258 10.8307 3.18605 11.2393 3.18605 11.685V15.4365H3.15007Z" fill="#0E1F32"/>
<path d="M21.5311 15.9931C21.3512 16.3274 21.0994 16.6245 20.8116 16.8845C20.5238 17.1445 20.1641 17.3674 19.8403 17.5159C19.4806 17.6645 19.1208 17.8131 18.7611 17.8874C18.4013 17.9616 18.0416 17.9988 17.7538 17.9988C17.2862 17.9988 16.7825 17.9616 16.2789 17.8502C15.7752 17.7388 15.3435 17.5531 14.9478 17.2559C14.5521 16.9588 14.2283 16.5874 13.9765 16.1416C13.7247 15.6588 13.5808 15.0645 13.5808 14.3588C13.5808 13.2074 13.9765 12.2788 14.768 11.6474C15.5594 11.0159 16.6746 10.6816 18.1136 10.6816H21.4951V10.4588C21.4951 10.1988 21.4592 9.97593 21.3872 9.71593C21.3153 9.45593 21.1714 9.23307 20.9555 9.04736C20.7756 8.86164 20.4878 8.67593 20.1641 8.5645C19.8403 8.45307 19.4086 8.37878 18.905 8.37878C18.2215 8.37878 17.5739 8.49021 17.0343 8.67593C16.4587 8.86164 15.9551 9.15878 15.5234 9.49307L15.3435 9.64164C15.0917 9.45593 14.8399 9.19593 14.5881 8.78736C14.3363 8.37879 14.1924 8.00736 14.1564 7.59879L14.3003 7.48736C15.0198 6.96736 15.8472 6.59593 16.7825 6.37307C17.7178 6.18736 18.5812 6.07593 19.3727 6.07593C21.0275 6.07593 22.2866 6.44736 23.1499 7.22736C24.0133 8.00736 24.445 9.19593 24.445 10.7931V17.7388C24.445 17.7759 24.3011 17.8131 24.0133 17.8502C23.7255 17.8874 23.4017 17.8874 23.042 17.8874C22.6463 17.8874 22.2866 17.8874 21.9988 17.8502C21.711 17.8131 21.5311 17.7759 21.5311 17.7388V15.9931ZM21.4951 12.7245H18.905C18.5812 12.7245 18.2934 12.7245 18.0056 12.7616C17.7178 12.7988 17.466 12.8359 17.2502 12.9474C17.0343 13.0588 16.8904 13.2074 16.7465 13.3931C16.6386 13.5788 16.5667 13.8759 16.5667 14.2102C16.5667 14.6559 16.7106 14.9902 17.0343 15.2131C17.3581 15.4359 17.8617 15.5474 18.5452 15.5474C18.905 15.5474 19.2647 15.4731 19.6245 15.3616C19.9842 15.2502 20.308 15.0645 20.5598 14.8416C20.8476 14.6188 21.0634 14.3216 21.2433 13.9874C21.4232 13.6531 21.4951 13.2445 21.4951 12.8359V12.7245Z" fill="#0E1F32"/>
<path d="M29.4096 9.19585C29.5535 8.86156 29.7694 8.52728 30.0212 8.19299C30.273 7.8587 30.5968 7.56156 30.9565 7.30156C31.3162 7.04156 31.7479 6.8187 32.2156 6.67013C32.6833 6.52156 33.2588 6.41013 33.9064 6.41013C34.6978 6.41013 35.4173 6.5587 36.1008 6.8187C36.7483 7.0787 37.3239 7.45013 37.7916 7.93299C38.2592 8.41585 38.619 9.01013 38.8708 9.75299C39.1226 10.4587 39.2665 11.2758 39.2665 12.1673C39.2665 12.9844 39.1226 13.7644 38.8348 14.4701C38.547 15.1758 38.1513 15.8073 37.6117 16.2901C37.1081 16.8101 36.4605 17.2187 35.7411 17.5158C34.9856 17.813 34.1942 17.9616 33.2588 17.9616C31.2803 17.9616 29.7694 17.3673 28.6901 16.1416C27.6109 14.953 27.0713 13.133 27.0713 10.7187C27.0713 8.08156 27.503 6.0387 28.3304 4.62728C29.1578 3.21585 30.4529 2.28728 32.1436 1.80442C32.7552 1.6187 33.3308 1.50728 33.8344 1.43299C34.3381 1.3587 34.8057 1.24728 35.2014 1.17299C35.5972 1.0987 35.9569 0.987276 36.2447 0.875847C36.5325 0.764419 36.7843 0.615847 36.9642 0.39299L37.1441 0.207275C37.5398 0.355847 37.8635 0.541561 38.1154 0.764418C38.3672 0.987275 38.547 1.28442 38.6909 1.58156L38.547 1.80442C38.2952 2.17585 38.0074 2.47299 37.7196 2.73299C37.4318 2.95585 37.0721 3.14156 36.6404 3.29013C36.2447 3.4387 35.777 3.55013 35.2374 3.66156C34.6978 3.77299 34.0862 3.88442 33.3668 3.99585C32.5394 4.14442 31.8918 4.36728 31.4242 4.66442C30.9205 4.96156 30.5608 5.33299 30.273 5.7787C29.9852 6.22442 29.7694 6.70727 29.6614 7.26442C29.5175 7.82156 29.4456 8.41585 29.3736 9.08442L29.4096 9.19585ZM33.2229 15.8073C33.6905 15.8073 34.1222 15.733 34.482 15.5473C34.8417 15.3616 35.1655 15.1016 35.3813 14.7673C35.5972 14.433 35.813 14.0616 35.9569 13.6158C36.1008 13.1701 36.1368 12.7244 36.1368 12.2416C36.1368 11.1273 35.885 10.273 35.3453 9.71585C34.8057 9.1587 34.1582 8.86156 33.3668 8.86156C32.8272 8.86156 32.3955 8.97299 31.9998 9.1587C31.64 9.34442 31.3162 9.60442 31.0644 9.9387C30.8126 10.273 30.6327 10.6073 30.4888 11.0158C30.3809 11.4244 30.309 11.833 30.309 12.2416C30.309 12.7244 30.3809 13.2073 30.4888 13.6158C30.5968 14.0616 30.7766 14.433 31.0284 14.7673C31.2803 15.1016 31.5681 15.3616 31.9278 15.5473C32.2875 15.6958 32.7192 15.8073 33.2229 15.8073Z" fill="#0E1F32"/>
<path d="M40.8855 12.0188C40.8855 11.0159 41.0294 10.1616 41.3532 9.41878C41.6769 8.67593 42.0726 8.0445 42.6482 7.56164C43.1878 7.07878 43.8354 6.70736 44.5549 6.44736C45.2743 6.18736 46.0658 6.07593 46.9292 6.07593C47.7925 6.07593 48.584 6.18736 49.3034 6.44736C50.0229 6.70736 50.6705 7.07878 51.2101 7.56164C51.7497 8.0445 52.1814 8.67593 52.4692 9.41878C52.757 10.1616 52.9368 11.0531 52.9368 12.0188C52.9368 13.0216 52.7929 13.9131 52.4692 14.6559C52.1814 15.3988 51.7497 16.0302 51.2101 16.5131C50.6705 16.9959 50.0589 17.3674 49.3034 17.6274C48.584 17.8874 47.7925 17.9988 46.9292 17.9988C46.1018 17.9988 45.3103 17.8874 44.5549 17.6274C43.8354 17.3674 43.1878 16.9959 42.6482 16.5131C42.1086 16.0302 41.6769 15.3988 41.3532 14.6559C41.0294 13.9131 40.8855 13.0216 40.8855 12.0188ZM46.8932 15.8074C47.4688 15.8074 47.9364 15.6959 48.3322 15.4359C48.7279 15.1759 49.0157 14.8788 49.2315 14.4702C49.4474 14.0988 49.6272 13.6902 49.6992 13.2445C49.8071 12.7988 49.8431 12.3902 49.8431 12.0188C49.8431 11.6474 49.8071 11.2388 49.6992 10.7931C49.5912 10.3474 49.4474 9.93878 49.2315 9.56736C49.0157 9.19593 48.7279 8.86164 48.3322 8.60164C47.9724 8.34164 47.4688 8.23021 46.8932 8.23021C46.3176 8.23021 45.8499 8.34164 45.4542 8.60164C45.0585 8.86164 44.7707 9.19593 44.5549 9.56736C44.339 9.93878 44.1591 10.3474 44.0872 10.7931C43.9793 11.2388 43.9433 11.6474 43.9433 12.0188C43.9433 12.3902 43.9793 12.7988 44.0872 13.2445C44.1951 13.6902 44.339 14.0988 44.5549 14.4702C44.7707 14.8416 45.0945 15.1759 45.4542 15.4359C45.8499 15.6588 46.3176 15.8074 46.8932 15.8074Z" fill="#0E1F32"/>
<path d="M57.3261 8.5629H53.5129C53.4409 8.5629 53.405 8.45147 53.369 8.19147C53.333 7.96861 53.333 7.67147 53.333 7.37433C53.333 7.07719 53.333 6.81719 53.369 6.59433C53.405 6.37147 53.4409 6.2229 53.5129 6.2229H64.1253C64.1612 6.2229 64.1972 6.33433 64.2332 6.59433C64.2691 6.85433 64.3051 7.11433 64.3051 7.37433C64.3051 7.67147 64.2691 7.93147 64.2332 8.19147C64.1972 8.45147 64.1612 8.5629 64.1253 8.5629H60.312V17.7372C60.312 17.7743 60.1321 17.8115 59.8084 17.8486C59.4846 17.8858 59.1608 17.8858 58.8011 17.8858C58.4054 17.8858 58.0456 17.8858 57.7578 17.8486C57.47 17.8115 57.3261 17.7743 57.3261 17.7372V8.5629Z" fill="#0E1F32"/>
<path d="M72.9749 15.9931C72.7951 16.3274 72.5433 16.6245 72.2555 16.8845C71.9677 17.1445 71.6079 17.3674 71.2842 17.5159C70.9244 17.6645 70.5647 17.8131 70.2049 17.8874C69.8452 17.9616 69.4855 17.9988 69.1977 17.9988C68.73 17.9988 68.2264 17.9616 67.7227 17.8502C67.2191 17.7388 66.7874 17.5531 66.3917 17.2559C65.996 16.9588 65.6722 16.5874 65.4204 16.1416C65.1686 15.6588 65.0247 15.0645 65.0247 14.3588C65.0247 13.2074 65.4204 12.2788 66.2118 11.6474C67.0032 11.0159 68.1184 10.6816 69.5574 10.6816H72.939V10.4588C72.939 10.1988 72.903 9.97593 72.8311 9.71593C72.7591 9.45593 72.6152 9.23307 72.3994 9.04736C72.2195 8.86164 71.9317 8.67593 71.6079 8.5645C71.2842 8.45307 70.8525 8.37878 70.3488 8.37878C69.6653 8.37878 69.0178 8.49021 68.4782 8.67593C67.9026 8.86164 67.399 9.15878 66.9673 9.49307L66.7874 9.64164C66.5356 9.45593 66.2837 9.19593 66.0319 8.78736C65.7801 8.37879 65.6362 8.00736 65.6002 7.59879L65.7441 7.48736C66.4636 6.96736 67.291 6.59593 68.2264 6.37307C69.1617 6.18736 70.0251 6.07593 70.8165 6.07593C72.4713 6.07593 73.7304 6.44736 74.5938 7.22736C75.4572 8.00736 75.8889 9.19593 75.8889 10.7931V17.7388C75.8889 17.7759 75.745 17.8131 75.4572 17.8502C75.1694 17.8874 74.8456 17.8874 74.4859 17.8874C74.0901 17.8874 73.7304 17.8874 73.4426 17.8502C73.1548 17.8131 72.9749 17.7759 72.9749 17.7388V15.9931ZM72.9749 12.7245H70.3848C70.061 12.7245 69.7732 12.7245 69.4855 12.7616C69.1977 12.7988 68.9458 12.8359 68.73 12.9474C68.5141 13.0588 68.3703 13.2074 68.2264 13.3931C68.1184 13.5788 68.0465 13.8759 68.0465 14.2102C68.0465 14.6559 68.1904 14.9902 68.5142 15.2131C68.8379 15.4359 69.3416 15.5474 70.0251 15.5474C70.3848 15.5474 70.7445 15.4731 71.1043 15.3616C71.464 15.2502 71.7878 15.0645 72.0396 14.8416C72.3274 14.6188 72.5433 14.3216 72.7231 13.9874C72.903 13.6531 72.9749 13.2445 72.9749 12.8359V12.7245Z" fill="#0E1F32"/>
<path d="M0.163656 38.4271C0.163656 38.0557 0.271582 37.6842 0.487427 37.2757C0.703272 36.8671 0.919113 36.57 1.13496 36.3842L1.3508 36.5328C1.81847 36.83 2.28613 37.09 2.78977 37.3128C3.29341 37.4985 3.94095 37.61 4.6964 37.61C5.27199 37.61 5.77563 37.5357 6.20732 37.3871C6.60303 37.2385 6.96277 37.0528 7.21459 36.83C7.46641 36.6071 7.64628 36.31 7.79018 36.0128C7.93407 35.7157 8.00603 35.3814 8.042 35.0471H3.79705C3.7251 35.0471 3.65315 34.9357 3.5812 34.7128C3.54523 34.49 3.50925 34.23 3.50925 33.9328C3.50925 33.6728 3.54523 33.4128 3.5812 33.1528C3.61718 32.8928 3.68913 32.7814 3.79705 32.7814H8.07797C8.00602 32.0757 7.71823 31.5185 7.25056 31.0357C6.7829 30.5528 6.06342 30.33 5.05614 30.33C4.6964 30.33 4.37263 30.3671 4.04887 30.4785C3.76107 30.59 3.47328 30.7014 3.22146 30.85C2.96964 30.9985 2.75379 31.1471 2.57392 31.3328C2.39405 31.5185 2.21418 31.6671 2.07029 31.8157L1.92639 32.0014C1.74652 32.0014 1.56665 31.9271 1.38678 31.7785C1.20691 31.63 1.02704 31.4814 0.847169 31.2957C0.667298 31.11 0.523397 30.9242 0.415474 30.7385C0.271578 30.5528 0.199634 30.3671 0.127686 30.1814L0.27158 29.9957C0.415477 29.8471 0.631323 29.6614 0.919116 29.4385C1.20691 29.2157 1.56665 28.9928 1.96236 28.77C2.35808 28.5471 2.86172 28.3985 3.40133 28.25C3.94094 28.1014 4.58848 28.0271 5.27199 28.0271C6.17134 28.0271 6.96278 28.1385 7.68226 28.3985C8.40174 28.6585 9.0133 29.03 9.51694 29.5128C10.0206 29.9957 10.4163 30.6271 10.7041 31.37C10.9919 32.1128 11.1358 32.9671 11.1358 33.8957C11.1358 34.8985 10.9559 35.79 10.6681 36.5328C10.3443 37.2757 9.87668 37.9071 9.3011 38.39C8.72551 38.8728 8.042 39.2814 7.28654 39.5042C6.49511 39.7642 5.6677 39.8757 4.76835 39.8757C3.90497 39.8757 3.07757 39.7642 2.28614 39.5042C1.4947 39.2442 0.847167 38.91 0.27158 38.5014L0.163656 38.4271Z" fill="#0E1F32"/>
<path d="M15.74 30.517H11.9267C11.8547 30.517 11.8188 30.4056 11.7828 30.1456C11.7468 29.9227 11.7468 29.6256 11.7468 29.3284C11.7468 29.0313 11.7468 28.7713 11.7828 28.5484C11.8188 28.3256 11.8547 28.177 11.9267 28.177H22.5391C22.575 28.177 22.611 28.2884 22.647 28.5484C22.683 28.7713 22.7189 29.0313 22.7189 29.3284C22.7189 29.6256 22.683 29.8856 22.647 30.1456C22.611 30.3684 22.575 30.517 22.5391 30.517H18.7258V39.6541C18.7258 39.6913 18.5819 39.7284 18.2581 39.7656C17.9344 39.8027 17.6106 39.8027 17.2509 39.8027C16.8552 39.8027 16.4954 39.8027 16.2076 39.7656C15.9198 39.7284 15.7759 39.6913 15.7759 39.6541V30.517H15.74Z" fill="#0E1F32"/>
<path d="M23.1147 33.97C23.1147 32.9671 23.2586 32.1128 23.5824 31.37C23.9062 30.6271 24.3019 29.9957 24.8415 29.5128C25.3811 29.03 26.0287 28.6585 26.7481 28.3985C27.4676 28.1385 28.2591 28.0271 29.0865 28.0271C29.9498 28.0271 30.7413 28.1385 31.4608 28.3985C32.1802 28.6585 32.8278 29.03 33.3674 29.5128C33.907 29.9957 34.3027 30.6271 34.6265 31.37C34.9143 32.1128 35.0941 32.9671 35.0941 33.97C35.0941 34.9728 34.9502 35.8642 34.6265 36.6071C34.3387 37.35 33.907 37.9814 33.3674 38.4642C32.8278 38.9471 32.2162 39.3185 31.4608 39.5785C30.7053 39.8385 29.9498 39.95 29.0865 39.95C28.2591 39.95 27.4676 39.8385 26.7481 39.5785C26.0287 39.3185 25.3811 38.9471 24.8415 38.4642C24.3019 37.9814 23.8702 37.35 23.5824 36.6071C23.2946 35.8642 23.1147 34.9728 23.1147 33.97ZM29.1224 37.7214C29.698 37.7214 30.1657 37.61 30.5254 37.35C30.8852 37.09 31.2089 36.7928 31.4248 36.3842C31.6406 36.0128 31.8205 35.6042 31.8924 35.1585C32.0004 34.7128 32.0363 34.3042 32.0363 33.9328C32.0363 33.5614 32.0004 33.1528 31.8924 32.7071C31.7845 32.2614 31.6406 31.8528 31.4248 31.4814C31.2089 31.11 30.9211 30.7757 30.5254 30.5157C30.1657 30.2557 29.662 30.1442 29.0865 30.1442C28.5109 30.1442 28.0432 30.2557 27.6475 30.5157C27.2518 30.7757 26.964 31.0728 26.7481 31.4814C26.5323 31.8528 26.3524 32.2614 26.2805 32.7071C26.1725 33.1528 26.1366 33.5614 26.1366 33.9328C26.1366 34.3042 26.1725 34.7128 26.2805 35.1585C26.3884 35.6042 26.5323 36.0128 26.7481 36.3842C26.964 36.7557 27.2877 37.09 27.6475 37.35C28.0072 37.61 28.5468 37.7214 29.1224 37.7214Z" fill="#0E1F32"/>
<path d="M44.8429 28.2136H55.8151V39.6536C55.8151 39.6908 55.6712 39.7279 55.3474 39.7651C55.0236 39.8022 54.6999 39.8022 54.3041 39.8022C53.9444 39.8022 53.5847 39.8022 53.2609 39.7651C52.9371 39.7279 52.7932 39.6908 52.7932 39.6536V30.5165H47.7928V39.6536C47.7928 39.6908 47.6489 39.7279 47.3252 39.7651C47.0374 39.8022 46.6776 39.8022 46.2819 39.8022C45.9222 39.8022 45.5624 39.8022 45.2387 39.7651C44.9149 39.7279 44.771 39.6908 44.771 39.6536V28.2136H44.8429Z" fill="#0E1F32"/>
<path d="M59.196 28.2502C59.196 28.2131 59.3399 28.1759 59.6637 28.1388C59.9875 28.1017 60.3112 28.1017 60.671 28.1017C61.0307 28.1017 61.3545 28.1017 61.6423 28.1388C61.9301 28.1759 62.11 28.2131 62.11 28.2502V30.0331H62.1459C62.5057 29.3645 63.0093 28.8817 63.6568 28.5102C64.2684 28.1388 65.0598 27.9902 65.9952 27.9902C66.7866 27.9902 67.4701 28.1388 68.0817 28.436C68.6932 28.7331 69.1609 29.1045 69.5566 29.6245C69.9523 30.1074 70.2401 30.7017 70.42 31.4074C70.5999 32.1131 70.7078 32.856 70.7078 33.636C70.7078 34.4902 70.5639 35.2702 70.3121 36.0502C70.0602 36.7931 69.6645 37.4988 69.1249 38.0559C68.5853 38.6502 67.9378 39.0959 67.1463 39.4302C66.3549 39.7645 65.4196 39.9502 64.3763 39.9502C64.0166 39.9502 63.6568 39.9131 63.2971 39.876C62.9014 39.8388 62.5417 39.7645 62.2179 39.6531V45.2245C62.2179 45.2617 62.074 45.2988 61.7502 45.336C61.4624 45.3731 61.1027 45.3731 60.7429 45.3731C60.3832 45.3731 60.0235 45.3731 59.6997 45.336C59.3759 45.2988 59.232 45.2617 59.232 45.2245V28.2502H59.196ZM62.11 37.3874C62.4337 37.4988 62.7575 37.6102 63.1172 37.6474C63.441 37.6845 63.8007 37.7217 64.2324 37.7217C64.844 37.7217 65.3836 37.6102 65.8153 37.4245C66.247 37.2017 66.6067 36.9417 66.8585 36.5702C67.1463 36.1988 67.3262 35.7902 67.4701 35.2702C67.614 34.7874 67.65 34.2302 67.65 33.6731C67.65 33.2274 67.614 32.8188 67.5061 32.4102C67.3982 32.0017 67.2543 31.6674 67.0384 31.3702C66.8226 31.0731 66.5707 30.8502 66.247 30.6645C65.9232 30.4788 65.5275 30.4045 65.0598 30.4045C64.6281 30.4045 64.2684 30.4788 63.9087 30.6645C63.5489 30.8502 63.2611 31.0731 62.9733 31.3331C62.7215 31.6302 62.5057 31.9645 62.3618 32.336C62.2179 32.7445 62.1459 33.1531 62.1459 33.5988V37.3874H62.11Z" fill="#0E1F32"/>
<path d="M72.3635 33.97C72.3635 32.9671 72.5074 32.1128 72.8312 31.37C73.155 30.6271 73.5507 29.9957 74.0903 29.5128C74.6299 29.03 75.2774 28.6585 75.9969 28.3985C76.7164 28.1385 77.5078 28.0271 78.3352 28.0271C79.1986 28.0271 79.99 28.1385 80.7095 28.3985C81.429 28.6585 82.0765 29.03 82.6162 29.5128C83.1558 29.9957 83.5515 30.6271 83.8753 31.37C84.163 32.1128 84.3429 32.9671 84.3429 33.97C84.3429 34.9728 84.199 35.8642 83.8753 36.6071C83.5875 37.35 83.1558 37.9814 82.6162 38.4642C82.0765 38.9471 81.465 39.3185 80.7095 39.5785C79.9541 39.8385 79.1986 39.95 78.3352 39.95C77.5078 39.95 76.7164 39.8385 75.9969 39.5785C75.2774 39.3185 74.6299 38.9471 74.0903 38.4642C73.5507 37.9814 73.119 37.35 72.8312 36.6071C72.5434 35.8642 72.3635 34.9728 72.3635 33.97ZM78.3352 37.7214C78.9108 37.7214 79.3785 37.61 79.7382 37.35C80.098 37.09 80.4217 36.7928 80.6376 36.3842C80.8534 36.0128 81.0333 35.6042 81.1052 35.1585C81.2132 34.7128 81.2491 34.3042 81.2491 33.9328C81.2491 33.5614 81.2132 33.1528 81.1052 32.7071C80.9973 32.2614 80.8534 31.8528 80.6376 31.4814C80.4217 31.11 80.1339 30.7757 79.7382 30.5157C79.3785 30.2557 78.8748 30.1442 78.2993 30.1442C77.7237 30.1442 77.256 30.2557 76.8603 30.5157C76.4646 30.7757 76.1768 31.0728 75.9609 31.4814C75.7451 31.8528 75.5652 32.2614 75.4933 32.7071C75.3854 33.1528 75.3494 33.5614 75.3494 33.9328C75.3494 34.3042 75.3854 34.7128 75.4933 35.1585C75.6012 35.6042 75.7451 36.0128 75.9609 36.3842C76.1768 36.7557 76.5006 37.09 76.8603 37.35C77.22 37.61 77.7596 37.7214 78.3352 37.7214Z" fill="#0E1F32"/>
<path d="M96.6459 38.5014C96.3941 38.6871 96.1063 38.8728 95.7825 39.0214C95.4588 39.2071 95.063 39.3557 94.7033 39.4671C94.3076 39.6157 93.9119 39.69 93.4802 39.7642C93.0485 39.8385 92.6168 39.8757 92.2211 39.8757C91.3937 39.8757 90.6023 39.7642 89.8468 39.5785C89.0913 39.3557 88.4438 39.0214 87.8682 38.5757C87.2926 38.0928 86.8609 37.4985 86.5012 36.7557C86.1774 36.0128 85.9976 35.0842 85.9976 33.97C85.9976 32.9671 86.1415 32.1128 86.4652 31.37C86.753 30.6271 87.1847 29.9957 87.7243 29.5128C88.2639 28.9928 88.8755 28.6214 89.6309 28.3985C90.3504 28.1385 91.1778 28.0271 92.0412 28.0271C92.6888 28.0271 93.2643 28.1014 93.804 28.2871C94.3436 28.4357 94.7753 28.6585 95.171 28.9185C95.5667 29.1785 95.8905 29.4757 96.1423 29.81C96.3941 30.1442 96.6099 30.5157 96.7538 30.8871L96.8618 31.1842C96.7898 31.37 96.6459 31.5557 96.466 31.7042C96.2862 31.8528 96.0703 32.0014 95.8185 32.0757C95.6027 32.1871 95.3508 32.2614 95.135 32.2985C94.9192 32.3357 94.7033 32.3728 94.5234 32.3728L94.4515 32.2242C94.2356 31.7042 93.9478 31.2585 93.5521 30.8871C93.1564 30.5157 92.6528 30.33 92.0052 30.33C91.0339 30.33 90.3145 30.6642 89.8108 31.3328C89.3072 32.0014 89.0554 32.8928 89.0554 34.0071C89.0554 34.49 89.1273 34.9728 89.2712 35.4185C89.4151 35.8642 89.631 36.2357 89.9187 36.57C90.2065 36.9042 90.5663 37.1642 90.962 37.35C91.3577 37.5357 91.8614 37.6471 92.4369 37.6471C93.1564 37.6471 93.768 37.5357 94.2356 37.35C94.7033 37.1642 95.171 36.8671 95.6386 36.5328L95.8545 36.3842C95.9984 36.4585 96.1423 36.57 96.2502 36.7557C96.3941 36.9042 96.502 37.09 96.6099 37.2757C96.7179 37.4614 96.7898 37.6471 96.8618 37.8328C96.9337 38.0185 96.9697 38.2042 96.9697 38.3157L96.6459 38.5014Z" fill="#0E1F32"/>
<path d="M101.611 30.517H97.7973C97.7254 30.517 97.6894 30.4056 97.6534 30.1456C97.6174 29.9227 97.6174 29.6256 97.6174 29.3284C97.6174 29.0313 97.6174 28.7713 97.6534 28.5484C97.6894 28.3256 97.7254 28.177 97.7973 28.177H108.41C108.446 28.177 108.482 28.2884 108.518 28.5484C108.554 28.7713 108.59 29.0313 108.59 29.3284C108.59 29.6256 108.554 29.8856 108.518 30.1456C108.482 30.3684 108.446 30.517 108.41 30.517H104.596V39.6541C104.596 39.6913 104.453 39.7284 104.129 39.7656C103.805 39.8027 103.481 39.8027 103.121 39.8027C102.726 39.8027 102.366 39.8027 102.078 39.7656C101.79 39.7284 101.647 39.6913 101.647 39.6541V30.517H101.611Z" fill="#0E1F32"/>
<path d="M109.021 33.97C109.021 32.9671 109.164 32.1128 109.488 31.37C109.812 30.6271 110.208 29.9957 110.747 29.5128C111.287 29.03 111.934 28.6585 112.654 28.3985C113.373 28.1385 114.165 28.0271 114.992 28.0271C115.856 28.0271 116.647 28.1385 117.367 28.3985C118.086 28.6585 118.734 29.03 119.273 29.5128C119.813 29.9957 120.208 30.6271 120.532 31.37C120.82 32.1128 121 32.9671 121 33.97C121 34.9728 120.856 35.8642 120.532 36.6071C120.244 37.35 119.813 37.9814 119.273 38.4642C118.734 38.9471 118.122 39.3185 117.367 39.5785C116.611 39.8385 115.856 39.95 114.992 39.95C114.165 39.95 113.373 39.8385 112.654 39.5785C111.934 39.3185 111.287 38.9471 110.747 38.4642C110.208 37.9814 109.776 37.35 109.488 36.6071C109.2 35.8642 109.021 34.9728 109.021 33.97ZM114.992 37.7214C115.568 37.7214 116.035 37.61 116.395 37.35C116.755 37.09 117.079 36.7928 117.295 36.3842C117.51 36.0128 117.69 35.6042 117.762 35.1585C117.87 34.7128 117.906 34.3042 117.906 33.9328C117.906 33.5614 117.87 33.1528 117.762 32.7071C117.654 32.2614 117.51 31.8528 117.295 31.4814C117.079 31.11 116.791 30.7757 116.395 30.5157C116.035 30.2557 115.532 30.1442 114.956 30.1442C114.381 30.1442 113.913 30.2557 113.517 30.5157C113.122 30.7757 112.834 31.0728 112.618 31.4814C112.402 31.8528 112.222 32.2614 112.15 32.7071C112.042 33.1528 112.006 33.5614 112.006 33.9328C112.006 34.3042 112.042 34.7128 112.15 35.1585C112.258 35.6042 112.402 36.0128 112.618 36.3842C112.834 36.7557 113.158 37.09 113.517 37.35C113.877 37.61 114.453 37.7214 114.992 37.7214Z" fill="#0E1F32"/>
<path d="M103.517 10.4224H84.4507V12.7252H103.517V10.4224Z" fill="#0E1F32"/>
</svg>
